<svg xmlns="http://www.w3.org/2000/svg" xmlns:xlink="http://www.w3.org/1999/xlink" viewBox="0 0 93 26">
  <path d="M 85.249 19.18 C 84.023 19.18 82.963 18.96 82.07 18.52 C 81.176 18.08 80.483 17.453 79.99 16.64 C 79.51 15.826 79.269 14.86 79.269 13.74 C 79.269 12.593 79.51 11.606 79.99 10.78 C 80.483 9.953 81.169 9.313 82.049 8.86 C 82.943 8.406 83.99 8.18 85.189 8.18 C 86.456 8.18 87.529 8.426 88.409 8.92 C 89.29 9.413 89.943 10.113 90.37 11.02 C 90.809 11.913 90.983 12.98 90.889 14.22 L 81.93 14.22 C 81.956 14.873 82.103 15.433 82.37 15.9 C 82.636 16.353 83.016 16.7 83.51 16.94 C 84.016 17.18 84.609 17.3 85.29 17.3 C 86.049 17.3 86.703 17.153 87.249 16.86 C 87.809 16.553 88.163 16.16 88.309 15.68 L 90.85 15.68 C 90.743 16.373 90.43 16.986 89.909 17.52 C 89.403 18.053 88.749 18.466 87.95 18.76 C 87.15 19.04 86.249 19.18 85.249 19.18 Z M 81.89 12.86 L 81.75 12.64 L 88.43 12.64 L 88.25 12.84 C 88.25 12.253 88.123 11.753 87.87 11.34 C 87.63 10.926 87.276 10.613 86.81 10.4 C 86.356 10.173 85.81 10.06 85.17 10.06 C 84.543 10.06 83.99 10.173 83.51 10.4 C 83.03 10.613 82.65 10.933 82.37 11.36 C 82.103 11.773 81.943 12.273 81.89 12.86 Z" fill="rgb(88,193,66)"></path>
  <path d="M 71.688 18.999 L 67.148 8.359 L 69.908 8.359 L 72.568 15.059 L 73.188 16.879 L 73.288 16.879 L 73.908 15.059 L 76.568 8.359 L 79.328 8.359 L 74.808 18.999 Z" fill="rgb(88,193,66)"></path>
  <path d="M 59.153 19.179 C 58.407 19.179 57.72 19.059 57.093 18.819 C 56.48 18.566 55.947 18.199 55.493 17.719 C 55.053 17.239 54.713 16.659 54.473 15.979 C 54.233 15.299 54.113 14.533 54.113 13.679 C 54.113 12.533 54.327 11.553 54.753 10.739 C 55.18 9.913 55.767 9.286 56.513 8.859 C 57.273 8.419 58.153 8.199 59.153 8.199 C 59.833 8.199 60.433 8.286 60.953 8.459 C 61.487 8.619 61.94 8.859 62.313 9.179 C 62.7 9.486 62.987 9.846 63.173 10.259 L 63.313 10.259 L 63.393 8.359 L 65.933 8.359 L 65.933 18.999 L 63.273 18.999 L 63.273 17.039 L 63.133 17.039 C 62.827 17.693 62.313 18.213 61.593 18.599 C 60.887 18.986 60.073 19.179 59.153 19.179 Z M 59.973 17.119 C 60.68 17.119 61.273 16.979 61.753 16.699 C 62.247 16.406 62.62 16.026 62.873 15.559 C 63.127 15.093 63.253 14.586 63.253 14.039 L 63.253 13.259 C 63.253 12.713 63.127 12.213 62.873 11.759 C 62.62 11.306 62.247 10.946 61.753 10.679 C 61.273 10.399 60.68 10.259 59.973 10.259 C 59.347 10.259 58.793 10.393 58.313 10.659 C 57.847 10.913 57.48 11.299 57.213 11.819 C 56.947 12.326 56.813 12.946 56.813 13.679 C 56.813 14.399 56.947 15.019 57.213 15.539 C 57.48 16.046 57.847 16.439 58.313 16.719 C 58.793 16.986 59.347 17.119 59.973 17.119 Z" fill="rgb(88,193,66)"></path>
  <path d="M 39.857 18.999 L 36.797 8.359 L 39.377 8.359 L 41.657 16.639 L 41.777 16.639 L 43.857 8.359 L 46.657 8.359 L 48.757 16.679 L 48.837 16.679 L 51.137 8.359 L 53.617 8.359 L 50.537 18.999 L 47.217 18.999 L 45.217 11.459 L 45.117 11.459 L 43.157 18.999 Z" fill="rgb(88,193,66)"></path>

  <g>
    <defs>
      <linearGradient id="idss10315476845_5g255138432" x1="0" x2="1" y1="0.4975124378109453" y2="0.5024875621890547">
        <stop offset="0" stop-color="rgb(31,77,34)" stop-opacity="1"></stop>
        <stop offset="1" stop-color="rgb(65,141,49)" stop-opacity="1"></stop>
      </linearGradient>
    </defs>
    <path d="M 10.723 11.755 C 9.354 11.755 8.598 12.645 8.186 14.636 L 2 13.746 C 2.757 7.226 5.293 4.067 10.311 4.067 C 14.027 4.067 17.665 6.882 19.445 6.882 C 20.825 6.882 21.57 5.925 21.982 4 L 28.168 4.89 C 27.478 11.421 24.874 14.581 19.857 14.581 C 16.085 14.569 12.581 11.755 10.723 11.755 Z" fill="url(#idss10315476845_5g255138432)"></path>
  </g>

  <g>
    <defs>
      <linearGradient id="idss10315476845_6g-1375231784" x1="0" x2="1" y1="0.4975124378109453" y2="0.5024875621890547">
        <stop offset="0" stop-color="rgb(65,141,49)" stop-opacity="1"></stop>
        <stop offset="1" stop-color="rgb(88,193,66)" stop-opacity="1"></stop>
      </linearGradient>
    </defs>
    <path d="M 11.301 18.117 C 9.932 18.117 9.176 19.007 8.764 20.999 L 2.578 20.109 C 3.335 13.589 5.871 10.418 10.889 10.418 C 14.594 10.418 18.243 13.233 20.023 13.233 C 21.403 13.233 22.148 12.276 22.56 10.352 L 28.746 11.242 C 28.056 17.772 25.453 20.932 20.435 20.932 C 16.663 20.932 13.159 18.117 11.301 18.117 Z" fill="url(#idss10315476845_6g-1375231784)"></path>
  </g>
</svg>
